<svg id="Capa_1" enable-background="new 0 0 511.992 511.992" height="512" viewBox="0 0 511.992 511.992" width="512" xmlns="http://www.w3.org/2000/svg"><g><g><path d="m440.17 231.35c-1.547-1.697-3.622-2.785-5.862-3.132v-72.715c0-.663-.066-1.325-.197-1.976-.2-.995-5.093-24.656-20.965-50.382-20.407-33.076-49.739-54.461-85.04-62.106-22.167-37.095-69.332-40.867-71.403-41.014-.471-.033-.943-.033-1.414 0-2.071.147-49.236 3.919-71.403 41.015-35.297 7.645-64.627 29.03-85.036 62.106-15.873 25.725-20.768 49.386-20.969 50.381-.131.65-.197 1.313-.197 1.977v72.715c-2.24.347-4.315 1.435-5.862 3.132-1.889 2.072-2.821 4.842-2.57 7.634 2.567 28.52 8.452 54.962 17.491 78.592 11.583 30.284 28.126 55.053 49.203 73.776l-20.582 56.948c-1.854 5.133.748 10.804 5.848 12.745l132.152 50.301c2.284.869 4.878.861 7.158-.017l47.231-18.231c5.152-1.989 7.717-7.778 5.728-12.931-1.988-5.15-7.777-7.719-12.93-5.728l-33.63 12.981v-49.951l91.498-36.063 19.404 53.69c1.877 5.194 7.609 7.886 12.804 6.006 5.194-1.877 7.883-7.609 6.006-12.803l-20.582-56.951c21.076-18.723 37.617-43.491 49.2-73.773 9.039-23.63 14.923-50.072 17.491-78.592.25-2.792-.683-5.562-2.572-7.634zm-180.413-43.223c-77.397 0-105.314-16.931-115.345-28.42h223.683c-1.616 1.99-3.744 4.147-6.542 6.344-12.832 10.072-40.911 22.076-101.796 22.076zm-3.741-168.084c4.912.519 33.458 4.369 50.333 24.767-19.181 7.743-38.537 19.601-50.351 36.98-11.85-17.444-31.191-29.109-50.34-36.975 16.852-20.273 45.486-24.235 50.358-24.772zm-158.333 136.566c1.011-4.282 5.988-23.388 18.527-43.51 18.021-28.917 42.754-46.692 73.542-52.866 23.119 7.767 56.244 24.763 56.244 53.228 0 5.149 4.081 9.572 9.218 9.97 5.742.445 10.786-4.22 10.786-9.972 0-28.445 32.944-45.393 56.237-53.227 30.793 6.172 55.527 23.948 73.547 52.866 12.539 20.122 17.514 39.229 18.523 43.51v71.074c-51.424-2.102-90.456-12.114-116.2-21.327 33.851-3.381 59.266-11.603 75.792-24.573 18.71-14.684 19.25-30.339 19.25-32.076 0-5.522-4.477-10-10-10h-254.308c-5.523 0-10 4.478-10 10 0 1.755.573 17.57 20.417 32.25 16.688 12.344 42.007 20.357 75.536 23.962-25.681 9.319-65.022 19.605-117.111 21.757zm55.914 244.744 93.323 36.159v49.982l-109.405-41.644zm205.341-21.649-92.017 36.267v-168.971c0-5.522-4.477-10-10-10s-10 4.478-10 10v169.063l-93.893-36.379c-41.941-34.578-57.413-88.718-62.713-131.742 92.449-2.21 148.347-28.647 165.528-38.131 17.194 9.488 73.192 35.964 165.832 38.138-5.301 43.029-20.783 97.178-62.737 131.755z"/><path d="m201.47 250.788c-5.523 0-10 4.478-10 10v98.274c0 5.522 4.477 10 10 10s10-4.478 10-10v-98.274c0-5.523-4.477-10-10-10z"/><path d="m151.489 262.07c-5.523 0-10 4.478-10 10v53.043c0 5.522 4.477 10 10 10s10-4.478 10-10v-53.043c0-5.523-4.477-10-10-10z"/><path d="m310.521 250.787c-5.523 0-10 4.478-10 10v98.275c0 5.522 4.477 10 10 10s10-4.478 10-10v-98.275c0-5.523-4.477-10-10-10z"/><path d="m360.503 262.069c-5.523 0-10 4.478-10 10v53.043c0 5.522 4.477 10 10 10s10-4.478 10-10v-53.043c0-5.523-4.477-10-10-10z"/><path d="m355.946 463.509c-2.097-5.03-8.017-7.499-13.06-5.41-5.034 2.085-7.487 8.032-5.41 13.061 2.081 5.039 8.03 7.487 13.06 5.409 5.053-2.087 7.475-8.017 5.41-13.06z"/></g></g></svg>